<?xml version="1.0" standalone="no"?>
<!DOCTYPE svg PUBLIC "-//W3C//DTD SVG 20010904//EN"
 "http://www.w3.org/TR/2001/REC-SVG-20010904/DTD/svg10.dtd">
<svg version="1.0" xmlns="http://www.w3.org/2000/svg"
 width="7352.000000pt" height="7353.000000pt" viewBox="0 0 7352.000000 7353.000000"
 preserveAspectRatio="xMidYMid meet">

<g transform="translate(0.000000,7353.000000) scale(0.100000,-0.100000)"
fill="#000000" stroke="none">
<path d="M28545 52539 c-308 -5 -2148 -8 -4090 -7 -3649 2 -3705 2 -3872 -37
-116 -27 -187 -80 -213 -161 -19 -58 -6 -244 29 -415 67 -325 155 -485 311
-563 125 -62 239 -68 565 -30 193 22 422 16 520 -16 134 -43 222 -96 326 -200
210 -208 330 -463 388 -830 76 -477 86 -745 107 -2835 18 -1829 15 -3119 -11
-4360 -17 -840 -20 -2252 -5 -2640 5 -143 10 -286 10 -319 l0 -59 40 6 c48 6
155 60 301 150 134 83 211 121 390 196 422 175 1000 369 1642 550 686 194
1313 329 2067 446 440 69 721 120 850 156 41 11 76 22 78 23 1 2 18 2210 37
4906 19 2697 37 4905 39 4908 11 11 95 22 234 32 344 25 975 -38 1512 -151
773 -162 1522 -580 2011 -1122 763 -846 1046 -1977 824 -3302 -176 -1051 -608
-2028 -1311 -2964 -297 -396 -545 -678 -1038 -1181 -273 -279 -359 -352 -926
-785 -226 -173 -370 -292 -370 -304 0 -20 260 -72 1145 -231 727 -130 877
-161 1114 -225 1327 -360 2459 -959 3575 -1891 233 -194 322 -278 721 -684
531 -539 949 -1055 1379 -1705 601 -907 992 -1733 1261 -2665 161 -556 260
-1098 331 -1810 19 -189 30 -766 16 -870 -5 -41 -8 -76 -7 -78 1 -1 73 125
160 280 230 412 538 937 1118 1905 670 1118 780 1305 1370 2330 429 744 496
864 488 885 -32 84 -234 397 -394 610 -74 98 -627 771 -725 883 -774 880
-1946 1828 -3169 2563 -279 167 -426 248 -758 415 -159 81 -331 170 -380 200
-50 29 -120 61 -155 71 -36 10 -157 54 -270 99 -113 44 -340 126 -504 181
-165 56 -301 106 -303 112 -2 7 33 40 79 74 108 81 468 322 583 390 69 41 139
100 305 256 303 285 683 671 776 789 363 458 693 1030 891 1540 454 1168 466
2317 36 3405 -82 207 -194 432 -358 720 -260 454 -493 751 -916 1165 -480 470
-967 816 -1564 1110 -1041 513 -2191 871 -3270 1019 -155 21 -449 44 -725 56
-330 15 -1629 20 -2295 9z"/>
<path d="M39130 51586 c-182 -65 -646 -274 -1035 -466 -374 -185 -385 -192
-385 -233 0 -82 51 -208 179 -445 l92 -170 100 -46 c103 -48 198 -76 259 -76
53 0 294 63 304 79 5 8 42 50 82 92 71 76 94 122 118 229 l5 26 123 0 c284 0
432 99 484 321 19 81 13 134 -27 258 -33 100 -207 455 -223 455 -6 -1 -40 -11
-76 -24z m29 -263 c103 -139 142 -289 107 -407 -46 -151 -189 -217 -324 -150
-99 49 -194 191 -240 360 l-20 71 201 91 c111 50 209 91 218 91 9 1 35 -24 58
-56z m-592 -335 c76 -152 98 -232 98 -353 0 -84 -4 -107 -22 -141 -54 -102
-163 -158 -308 -158 -74 -1 -97 3 -131 21 -64 34 -99 68 -148 142 -42 63 -136
275 -136 307 0 20 91 76 245 151 129 62 304 131 336 133 10 0 33 -36 66 -102z"/>
<path d="M40015 49563 c-215 -28 -1052 -238 -1424 -358 l-143 -46 7 -67 c4
-37 25 -137 47 -222 22 -85 53 -211 68 -280 39 -176 39 -178 67 -200 34 -27
153 -29 153 -4 0 56 -38 248 -84 429 -30 115 -53 211 -52 213 4 4 614 172 624
172 15 0 51 -105 73 -213 11 -56 28 -120 38 -142 18 -41 82 -105 104 -105 25
0 87 51 87 71 0 11 -20 98 -45 195 -60 231 -60 229 13 261 85 38 229 71 322
75 l83 3 19 -55 c10 -30 34 -122 53 -205 38 -173 64 -247 105 -303 27 -37 32
-40 58 -33 97 28 109 62 68 197 -12 44 -35 119 -49 167 -15 49 -36 132 -46
185 -23 110 -82 266 -103 268 -7 1 -26 -1 -43 -3z"/>
<path d="M39490 47619 c-276 -35 -471 -137 -560 -292 -41 -71 -64 -182 -57
-271 7 -92 33 -166 102 -283 62 -106 63 -93 -11 -174 -52 -57 -77 -135 -58
-183 8 -22 95 -21 140 0 19 9 62 48 96 86 l61 69 286 -6 c568 -14 804 33 947
187 164 178 184 422 49 625 -46 70 -128 148 -182 174 -121 59 -583 97 -813 68z
m628 -208 c106 -16 128 -23 160 -48 148 -119 159 -367 22 -503 -91 -92 -189
-110 -599 -110 l-287 0 -30 73 c-27 65 -33 72 -60 75 -19 2 -43 -6 -67 -23
-37 -24 -87 -32 -122 -19 -41 16 -90 175 -82 269 7 93 44 153 132 212 43 29
159 69 240 82 39 6 81 13 95 15 64 11 481 -5 598 -23z"/>
<path d="M38862 45375 c-236 -53 -351 -213 -352 -487 0 -248 122 -396 400
-482 130 -40 757 -174 920 -196 97 -14 265 -18 276 -8 4 4 -1 28 -11 54 -37
96 -125 132 -475 189 -262 44 -578 105 -648 127 -95 29 -178 75 -218 122 -107
124 -73 375 63 465 71 47 113 56 263 55 154 -1 230 -15 550 -99 356 -93 512
-116 603 -86 48 16 58 63 25 120 -22 38 -23 39 -96 45 -80 8 -256 42 -536 105
-275 63 -397 82 -556 86 -104 4 -163 1 -208 -10z"/>
<path d="M37950 43176 c0 -84 64 -149 198 -200 37 -14 155 -53 262 -87 166
-51 598 -204 885 -311 86 -32 183 -41 221 -20 12 6 24 25 28 43 13 66 -39 115
-158 149 -73 21 -537 185 -871 308 -252 93 -415 142 -497 149 l-68 6 0 -37z"/>
<path d="M24997 39060 c-871 -55 -1786 -318 -2742 -790 -498 -245 -1028 -570
-1427 -873 -88 -67 -188 -142 -222 -167 -244 -176 -947 -966 -1388 -1560 -574
-773 -991 -1565 -1290 -2450 -225 -667 -351 -1298 -398 -1988 -13 -197 -13
-711 0 -917 67 -1035 332 -2032 794 -2990 162 -335 325 -617 577 -995 356
-536 672 -935 970 -1225 79 -77 209 -209 288 -293 84 -89 219 -216 324 -305
1243 -1051 2261 -1653 3726 -2203 309 -117 804 -282 1071 -358 189 -53 258
-70 795 -191 138 -31 320 -77 405 -102 129 -37 215 -53 505 -94 1599 -227
2119 -274 3015 -273 555 0 851 13 1475 65 2927 242 5524 1146 7655 2664 892
636 1669 1392 2213 2155 183 257 272 375 336 443 l44 48 -11 47 c-191 795
-291 1362 -371 2092 -83 760 -150 1946 -151 2665 0 233 -23 636 -40 720 -6 28
-19 60 -28 73 -18 23 -23 12 -444 -995 -235 -560 -501 -1196 -591 -1413 -457
-1099 -935 -2106 -1344 -2830 -443 -784 -864 -1337 -1198 -1575 -90 -64 -238
-140 -345 -177 -87 -29 -106 -32 -215 -32 -109 0 -129 3 -212 32 -51 17 -169
67 -263 112 -169 79 -190 87 -190 72 0 -13 -172 -236 -280 -363 -58 -68 -286
-307 -507 -532 -343 -349 -448 -448 -715 -679 -424 -365 -744 -603 -1178 -875
-1107 -694 -2181 -1076 -3320 -1179 -224 -21 -711 -23 -915 -5 -1170 104
-2197 529 -3061 1268 -175 149 -556 527 -705 698 -646 743 -1166 1610 -1564
2610 -452 1133 -714 2328 -805 3665 -18 257 -24 968 -11 1250 60 1300 297
2435 738 3544 678 1703 1630 2747 2767 3036 437 111 863 116 1251 15 220 -57
380 -125 758 -322 119 -62 220 -113 223 -113 15 0 -97 117 -196 205 -216 192
-482 398 -672 521 -752 487 -1539 769 -2364 849 -196 19 -582 26 -767 15z"/>
</g>
</svg>
